<svg height="512" viewBox="0 0 512 512" width="512" xmlns="http://www.w3.org/2000/svg"><path d="m256 429c-95.393 0-173-77.607-173-173s77.607-173 173-173 173 77.607 173 173-77.607 173-173 173zm0-330c-86.57 0-157 70.43-157 157s70.43 157 157 157 157-70.43 157-157-70.43-157-157-157z" fill="#75aa40"/><path d="m256 374a118 118 0 1 1 118-118 118.134 118.134 0 0 1 -118 118zm0-220a102 102 0 1 0 102 102 102.116 102.116 0 0 0 -102-102z" fill="#75aa40"/><path d="m256 319a63 63 0 1 1 63-63 63.072 63.072 0 0 1 -63 63zm0-110a47 47 0 1 0 47 47 47.053 47.053 0 0 0 -47-47z" fill="#75aa40"/><path d="m246 73h20v183h-20z" fill="#466089"/><circle cx="348" cy="119" fill="#ffe352" r="20"/><circle cx="99" cy="308" fill="#ffe352" r="20"/><circle cx="256" cy="366" fill="#ffe352" r="20"/><circle cx="256" cy="256" fill="#6e83b7" r="25"/><g fill="#d3d3d3"><path d="m451 246h20v20h-20z"/><path d="m246 451h20v20h-20z"/><path d="m41 246h20v20h-20z"/><path d="m246 41h20v20h-20z"/></g></svg>
